<?xml version="1.0" encoding="UTF-8"?>
        <svg width="115.4mm" height="95.4mm" viewBox="0 0 115.4 95.4"
        xmlns="http://www.w3.org/2000/svg"
        xmlns:xlink="http://www.w3.org/1999/xlink">
        <g id="CUT" stroke="rgb(255,0,0)" stroke-width="0.2" fill="none">
<line x1="0.000" y1="0.000" x2="115.400" y2="0.000" />
<line x1="115.400" y1="0.000" x2="115.400" y2="95.400" />
<line x1="115.400" y1="95.400" x2="0.000" y2="95.400" />
<line x1="0.000" y1="95.400" x2="0.000" y2="0.000" />
<line x1="4.700" y1="4.700" x2="110.700" y2="4.700" />
<line x1="110.700" y1="4.700" x2="110.700" y2="90.700" />
<line x1="110.700" y1="90.700" x2="4.700" y2="90.700" />
<line x1="4.700" y1="90.700" x2="4.700" y2="4.700" />
<circle cx="25.900" cy="6.200" r="1.100" />
<circle cx="25.900" cy="89.200" r="1.100" />
<circle cx="47.100" cy="6.200" r="1.100" />
<circle cx="47.100" cy="89.200" r="1.100" />
<circle cx="68.300" cy="6.200" r="1.100" />
<circle cx="68.300" cy="89.200" r="1.100" />
<circle cx="89.500" cy="6.200" r="1.100" />
<circle cx="89.500" cy="89.200" r="1.100" />
<circle cx="6.200" cy="26.200" r="1.100" />
<circle cx="109.200" cy="26.200" r="1.100" />
<circle cx="6.200" cy="47.700" r="1.100" />
<circle cx="109.200" cy="47.700" r="1.100" />
<circle cx="6.200" cy="69.200" r="1.100" />
<circle cx="109.200" cy="69.200" r="1.100" />
<circle cx="10.050" cy="10.050" r="1.100" />
<circle cx="105.350" cy="10.050" r="1.100" />
<circle cx="105.350" cy="85.350" r="1.100" />
<circle cx="10.050" cy="85.350" r="1.100" />
<circle cx="2.350" cy="2.350" r="1.100" />
<circle cx="113.050" cy="2.350" r="1.100" />
<circle cx="113.050" cy="93.050" r="1.100" />
<circle cx="2.350" cy="93.050" r="1.100" />
</g></svg>